<?xml version="1.0" standalone="no"?>
<!DOCTYPE svg PUBLIC "-//W3C//DTD SVG 20010904//EN"
 "http://www.w3.org/TR/2001/REC-SVG-20010904/DTD/svg10.dtd">
<svg version="1.0" xmlns="http://www.w3.org/2000/svg"
 width="512.000000pt" height="512.000000pt" viewBox="0 0 512.000000 512.000000"
 preserveAspectRatio="xMidYMid meet">
<metadata>
Created by potrace 1.11, written by Peter Selinger 2001-2013
</metadata>
<g transform="translate(0.000000,512.000000) scale(0.100000,-0.100000)"
fill="#000000" stroke="none">
<path d="M1181 5048 c-7 -40 -30 -167 -51 -283 -21 -115 -41 -226 -44 -245 -3
-19 -8 -46 -11 -60 -4 -21 -32 -177 -49 -270 -3 -19 -60 -333 -110 -603 -3
-15 -10 -54 -16 -87 -11 -66 -17 -95 -23 -125 -16 -74 -27 -165 -23 -189 7
-37 48 -105 83 -137 15 -15 64 -52 108 -83 44 -30 85 -60 92 -66 7 -5 14 -10
17 -10 6 0 99 -61 106 -70 3 -3 21 -17 40 -30 52 -36 109 -100 132 -148 20
-45 21 -88 3 -501 -5 -104 -9 -230 -20 -521 -3 -80 -8 -190 -10 -245 -3 -55
-7 -174 -10 -265 -3 -91 -7 -201 -10 -245 -4 -69 -14 -357 -19 -525 -5 -167
77 -278 239 -323 148 -41 326 17 395 129 53 85 54 116 25 799 -2 55 -7 170
-10 255 -3 85 -8 207 -10 270 -3 63 -7 178 -10 255 -6 153 -11 287 -21 525
-13 315 -12 342 5 389 21 57 113 152 217 222 301 202 373 283 359 402 -3 29
-8 59 -11 68 -3 10 -6 31 -9 49 -2 17 -6 43 -9 58 -3 15 -8 43 -12 62 -3 19
-7 40 -8 45 -13 58 -16 75 -20 105 -3 19 -7 45 -10 56 -2 12 -7 37 -10 55 -3
19 -8 48 -11 64 -21 108 -78 424 -81 440 -2 11 -5 30 -8 41 -2 12 -7 37 -10
55 -6 35 -40 226 -52 289 -3 19 -8 44 -10 55 -4 28 -33 185 -39 215 -3 14 -10
52 -15 85 -22 128 -10 115 -106 115 l-85 0 6 -107 c3 -60 8 -135 10 -168 7
-105 15 -238 20 -315 5 -79 12 -190 21 -325 5 -80 9 -146 20 -346 l6 -105
-115 -77 c-64 -43 -122 -79 -129 -82 -9 -4 -13 6 -14 32 0 21 -4 94 -8 163
-11 184 -16 273 -21 390 -2 58 -5 105 -5 105 -2 0 -7 88 -14 240 -4 72 -8 155
-11 185 -2 30 -7 111 -10 180 -7 125 -12 208 -14 223 -1 4 -39 7 -86 7 l-85 0
-1 -27 c0 -16 -2 -48 -4 -73 -1 -25 -5 -103 -9 -175 -3 -71 -8 -161 -11 -200
-2 -38 -7 -117 -10 -175 -3 -58 -8 -139 -10 -180 -6 -103 -15 -269 -20 -365
-2 -44 -7 -127 -11 -185 -3 -58 -6 -115 -5 -127 1 -29 -2 -29 -56 7 -24 17
-48 30 -54 30 -5 0 -9 3 -9 8 0 4 -32 27 -70 52 l-70 45 5 78 c3 42 7 112 10
155 2 42 7 120 11 172 3 52 7 124 9 160 5 77 15 237 30 470 3 36 7 112 10 170
3 58 7 117 9 133 l3 27 -86 0 -87 0 -13 -72z"/>
<path d="M3955 5101 c-293 -79 -555 -280 -692 -532 -32 -58 -84 -196 -97 -259
-3 -14 -10 -45 -16 -70 -5 -25 -12 -61 -15 -80 -2 -19 -7 -46 -10 -60 -3 -14
-8 -43 -10 -65 -9 -80 -14 -121 -19 -165 -16 -116 -18 -203 -22 -755 -5 -621
-4 -635 40 -700 73 -109 253 -188 439 -194 21 0 36 -4 34 -8 -3 -5 -8 -44 -12
-88 -3 -44 -9 -100 -11 -125 -5 -45 -10 -106 -19 -210 -4 -52 -10 -119 -20
-217 -2 -24 -7 -78 -10 -120 -4 -43 -8 -96 -11 -118 -2 -22 -6 -69 -10 -105
-3 -36 -7 -83 -10 -105 -2 -22 -7 -69 -9 -105 -3 -36 -8 -85 -11 -110 -3 -25
-7 -70 -9 -100 -2 -30 -6 -84 -10 -120 -4 -36 -8 -83 -10 -105 -2 -22 -7 -76
-11 -120 -20 -203 -5 -289 60 -357 94 -97 273 -131 411 -78 79 31 153 105 180
180 19 54 20 87 20 2480 l0 2425 -35 2 c-19 1 -66 -6 -105 -16z"/>
</g>
</svg>
